<svg version="1.1" id="Layer_1" xmlns="http://www.w3.org/2000/svg" xmlns:xlink="http://www.w3.org/1999/xlink" x="0px" y="0px" viewBox="0 0 369.1 70" style="enable-background:new 0 0 369.1 70;" xml:space="preserve">
 <style type="text/css">
  .st0{fill:#006643;}
 </style>
 <g>
  <g transform="translate(-395 -22)">
   <g>
    <g>
     <g>
      <path id="fbpsa" class="st0" d="M472.8,45.7c6,0,9.9-2.5,9.9-6.6c0-1.3-0.4-2.3-1.2-3.2c-1.1-1.1-3.1-1.6-6-1.6h-7.2l-3.1,11.4
						H472.8z M458,22.9h18.2c8,0,13.4,1.8,16.6,5c2.5,2.6,3.8,6.1,3.7,9.7c0,8-4.6,14.2-14.5,16.9l7.4,16h-14.8l-6.4-14.4h-5.9
						l-3.9,14.4h-13.3L458,22.9z">
      </path>
     </g>
    </g>
    <g>
     <g>
      <path id="fbpsb" class="st0" d="M537,44.4c0-6.1-3.7-10.5-10.5-10.5c-8.4,0-13.9,8.1-13.9,15.2c0,6.1,3.7,10.5,10.5,10.5
						C531.5,59.6,537,51.5,537,44.4L537,44.4z M498.9,50c0-14.5,12-28,28.7-28c13.7,0,23,9.2,23,21.4c0,14.5-12,28-28.8,28
						C508.2,71.4,498.9,62.1,498.9,50L498.9,50z">
      </path>
     </g>
    </g>
    <g>
     <g>
      <path id="fbpsc" class="st0" d="M562.5,22.9H575l12.4,26.4l7.2-26.4H608l-13,47.6h-11.7l-13.1-27.4l-7.4,27.4h-13.3L562.5,22.9
						z">
      </path>
     </g>
    </g>
    <g>
     <g>
      <path id="fbpsd" class="st0" d="M625.1,34.5h-14.5l3.1-11.5H656l-3,11.5h-14.5l-9.8,36h-13.5L625.1,34.5z">
      </path>
     </g>
    </g>
    <g>
     <g>
      <path id="fbpse" class="st0" d="M661.9,22.9h13.4l-13,47.6h-13.4L661.9,22.9z">
      </path>
     </g>
    </g>
    <g>
     <g>
      <path id="fbpsf" class="st0" d="M681.2,22.9h38.7l-3.1,11.2h-25.4l-2,7.2h23l-2.8,10.4h-23l-2,7.5h25.8l-3,11.2h-39L681.2,22.9
						z">
      </path>
     </g>
    </g>
    <g>
     <g>
      <path id="fbpsg" class="st0" d="M740.5,45.7c6,0,9.9-2.5,9.9-6.6c0-1.3-0.4-2.3-1.2-3.2c-1.1-1.1-3.1-1.6-5.9-1.6H736
						l-3.1,11.4H740.5z M725.6,22.9h18.2c8.1,0,13.4,1.8,16.6,5c2.5,2.6,3.8,6.1,3.7,9.7c0,8-4.7,14.2-14.5,16.9l7.5,16h-14.8
						L736,56.1H730l-4,14.4h-13.3L725.6,22.9z">
      </path>
     </g>
    </g>
    <g>
     <g>
      <path id="fbpsh" class="st0" d="M451.9,22.9h-38.1c-4.4,0-6.6,2-8.1,7.9l-1.8,6.9c-0.1,0.2,0.1,0.3,0.3,0.2c0,0,2.2-1.5,6-1.5
						h32.2c4,0,7-3.5,7.9-6.5l1.8-6.7C452.1,23,452.1,22.9,451.9,22.9z">
      </path>
     </g>
    </g>
    <g>
     <g>
      <path id="fbpsi" class="st0" d="M445.6,39.9h-36.3c-4.4,0-6.3,1.7-8.1,7.9l-1.8,6.8c-0.1,0.2,0.1,0.3,0.3,0.2
						c0,0,2.3-1.5,6.1-1.5h29.6c4.6,0,7.8-3.6,9.3-8.8l1.2-4.4C445.8,40,445.7,39.9,445.6,39.9L445.6,39.9z">
      </path>
     </g>
    </g>
    <g>
     <g>
      <path id="fbpsj" class="st0" d="M421.2,57h-16.6c-4.3,0-6.5,1.9-8,7.4l-1.6,5.9c0,0.1,0.1,0.2,0.2,0.2h15.9c4,0,7.4-2.5,8.9-8
						l1.4-5.3C421.4,57.1,421.3,57,421.2,57z">
      </path>
     </g>
    </g>
   </g>
   <g>
    <g>
     <g>
      <g>
       <path id="fbpsk" class="st0" d="M395,77h1.7v13.2h8.4v1.6H395V77z">
       </path>
      </g>
     </g>
     <g>
      <g>
       <path id="fbpsl" class="st0" d="M420.1,84.4c0-3.4-2.5-6.1-5.9-6.1c-3.4,0-5.8,2.7-5.8,6.1v0.1c-0.1,3.2,2.4,6,5.6,6.1
							c0.1,0,0.1,0,0.2,0c3.2,0,5.8-2.7,5.8-6C420.1,84.5,420.1,84.5,420.1,84.4z M406.7,84.4c-0.1-4.2,3.2-7.6,7.4-7.7
							c0.1,0,0.2,0,0.3,0c4.5,0,7.6,3.5,7.6,7.6v0.1c0.1,4.2-3.3,7.6-7.4,7.6c-0.1,0-0.2,0-0.2,0c-4.1,0.1-7.5-3.2-7.6-7.3
							C406.7,84.6,406.7,84.5,406.7,84.4z">
       </path>
      </g>
     </g>
     <g>
      <g>
       <path id="fbpsm" class="st0" d="M423.6,77h1.8l4.2,12.3l4.1-12.3h1.4l4.1,12.3l4.2-12.3h1.8l-5.3,14.8h-1.4l-4.1-11.9
							l-4.1,11.9h-1.4L423.6,77z">
       </path>
      </g>
     </g>
     <g>
      <g>
       <path id="fbpsn" class="st0" d="M454.7,77h10.7v1.6h-9v5.3h8v1.5h-8.1v6.4h-1.7L454.7,77L454.7,77z">
       </path>
      </g>
     </g>
     <g>
      <g>
       <path id="fbpso" class="st0" d="M476.6,86.3l-3.4-7.5l-3.4,7.5H476.6z M472.5,76.9h1.6l6.8,14.8H479l-1.8-3.9h-8.1l-1.8,3.9
							h-1.7L472.5,76.9z">
       </path>
      </g>
     </g>
     <g>
      <g>
       <path id="fbpsp" class="st0" d="M490,84.5c2.3,0,3.8-1.2,3.8-3v-0.1c0-1.8-1.4-2.9-3.8-2.9h-4.6v6H490z M483.8,77h6.4
							c1.8,0,3.3,0.5,4.2,1.5c0.8,0.8,1.2,1.8,1.2,2.9v0.1c0,2.4-1.7,3.8-4,4.3l4.6,6h-2.1l-4.3-5.7h-4.2v5.7h-1.8L483.8,77z">
       </path>
      </g>
     </g>
     <g>
      <g>
       <path id="fbpsq" class="st0" d="M499.2,77H510v1.5h-9.1v5.1h8.1v1.5h-8.1v5.1h9.2v1.5h-10.9L499.2,77L499.2,77z">
       </path>
      </g>
     </g>
     <g>
      <g>
       <path id="fbpsr" class="st0" d="M512.5,89.6l1-1.2c1.6,1.4,3.1,2.1,5.1,2.1c2,0,3.4-1.1,3.4-2.5v-0.1c0-1.3-0.8-2.2-3.9-2.8
							c-3.4-0.7-5-1.8-5-4.2v-0.1c0-2.3,2.1-4,4.9-4c2.2,0,3.8,0.6,5.3,1.8l-1,1.3c-1.4-1.1-2.8-1.6-4.3-1.6c-1.9,0-3.1,1.1-3.1,2.3
							v0.1c0,1.4,0.7,2.1,4,2.8c3.4,0.7,4.9,1.9,4.9,4.2v0.1c0,2.5-2.1,4.2-5.1,4.2C516.3,91.9,514.3,91.2,512.5,89.6L512.5,89.6z">
       </path>
      </g>
     </g>
     <g>
      <g>
       <path id="fbpss" class="st0" d="M535.2,78.6v11.7h3.5c3.8,0,6.1-2.5,6.1-5.8v-0.1c0-3.2-2.4-5.8-6.1-5.8H535.2z M533.6,77h5.2
							c4.7,0,7.9,3.2,7.9,7.4v0.1c0,4.1-3.2,7.4-7.9,7.4h-5.2V77z">
       </path>
      </g>
     </g>
     <g>
      <g>
       <path id="fbpst" class="st0" d="M563,84.4c0-3.4-2.5-6.1-5.9-6.1c-3.4,0-5.8,2.7-5.8,6.1v0.1c-0.1,3.2,2.4,6,5.6,6.1
							c0.1,0,0.2,0,0.2,0c3.2,0,5.8-2.7,5.8-6C563,84.5,563,84.5,563,84.4z M549.6,84.4c-0.1-4.2,3.2-7.6,7.4-7.7c0.1,0,0.2,0,0.3,0
							c4.5,0,7.6,3.5,7.6,7.6v0.1c0.1,4.2-3.3,7.6-7.4,7.6c-0.1,0-0.2,0-0.2,0c-4.1,0.1-7.5-3.2-7.6-7.3
							C549.5,84.6,549.5,84.5,549.6,84.4L549.6,84.4z">
       </path>
      </g>
     </g>
     <g>
      <g>
       <path id="fbpsu" class="st0" d="M568.3,77h1.6l9.4,11.8V77h1.7v14.7h-1.4L570,79.7v12.1h-1.7V77z">
       </path>
      </g>
     </g>
     <g>
      <g>
       <path id="fbpsv" class="st0" d="M585.2,77H596v1.5h-9.1v5.1h8.1v1.5h-8.1v5.1h9.2v1.5h-10.9L585.2,77L585.2,77z">
       </path>
      </g>
     </g>
     <g>
      <g>
       <path id="fbpsw" class="st0" d="M612.2,84.5c2.2,0,3.8-1.2,3.8-3v-0.1c0-1.8-1.4-2.9-3.8-2.9h-4.7v6H612.2z M605.9,77h6.4
							c1.8,0,3.3,0.5,4.2,1.5c0.8,0.8,1.2,1.8,1.2,2.9v0.1c0,2.4-1.7,3.8-4,4.3l4.6,6h-2.1l-4.3-5.7h-4.4v5.7h-1.7L605.9,77
							L605.9,77z">
       </path>
      </g>
     </g>
     <g>
      <g>
       <path id="fbpsx" class="st0" d="M621.4,77h1.7v14.7h-1.7V77z">
       </path>
      </g>
     </g>
     <g>
      <g>
       <path id="fbpsy" class="st0" d="M626.8,84.4c0-4.1,3-7.7,7.5-7.7c2.5,0,4.1,0.7,5.5,2l-1.1,1.3c-1.2-1.1-2.8-1.7-4.5-1.7
							c-3.3,0-5.7,2.8-5.7,6.1v0.1c0,3.5,2.3,6.1,5.9,6.1c1.7,0,3.3-0.7,4.3-1.5v-3.7h-4.5v-1.5h6.1v5.9c-1.7,1.4-3.8,2.2-6,2.2
							c-4,0.2-7.4-2.9-7.6-6.9C626.8,84.9,626.8,84.7,626.8,84.4L626.8,84.4z">
       </path>
      </g>
     </g>
     <g>
      <g>
       <path id="fbpsz" class="st0" d="M644.2,77h1.7v6.6h8.6V77h1.7v14.7h-1.7v-6.6h-8.6v6.6h-1.7V77z">
       </path>
      </g>
     </g>
     <g>
      <g>
       <path id="fbpsA" class="st0" d="M664.4,78.6h-5V77H671v1.6h-5v13.2h-1.7L664.4,78.6z">
       </path>
      </g>
     </g>
    </g>
    <g>
     <g>
      <g>
       <path id="fbpsB" class="st0" d="M672.8,77.7h-0.1v-0.2h0.1c0.1,0,0.1,0.1,0.1,0.1C672.9,77.7,672.8,77.8,672.8,77.7
							L672.8,77.7z M672.3,78.2h0.2v-0.3h0.1l0.2,0.3h0.2l-0.2-0.3c0.1-0.1,0.2-0.1,0.2-0.3c0-0.2-0.1-0.3-0.3-0.3h-0.4L672.3,78.2z
							 M672.7,78.4c-0.4,0-0.7-0.3-0.7-0.7c0-0.3,0.3-0.7,0.7-0.7c0.4,0,0.7,0.3,0.7,0.7C673.4,78.2,673.1,78.4,672.7,78.4z
							 M672.7,78.5c0.4,0,0.8-0.3,0.8-0.7c0-0.4-0.3-0.8-0.8-0.8c-0.4,0-0.8,0.3-0.8,0.8C671.9,78.2,672.3,78.5,672.7,78.5z">
       </path>
      </g>
     </g>
    </g>
   </g>
  </g>
 </g>
</svg>