<svg version="1.1" id="Layer_1" xmlns="http://www.w3.org/2000/svg" xmlns:xlink="http://www.w3.org/1999/xlink" x="0px" y="0px" viewBox="0 0 94.8 94.8" style="enable-background:new 0 0 94.8 94.8;" xml:space="preserve">
 <style type="text/css">
  .st0{fill-rule:evenodd;clip-rule:evenodd;}
	.st1{fill:#FFFFFF;}
	.st2{fill-rule:evenodd;clip-rule:evenodd;fill:#001EA0;}
 </style>
 <g>
  <g id="BLACK">
   <path id="Compound_Path" class="st0" d="M94.8,47.4c0,26.2-21.2,47.4-47.4,47.4S0,73.6,0,47.4S21.2,0,47.4,0S94.8,21.2,94.8,47.4z
			 M88,47.4C88,25,69.8,6.8,47.4,6.8S6.8,25,6.8,47.4S25,88,47.4,88S88,69.8,88,47.4z">
   </path>
  </g>
  <g id="BLUE">
   <path id="Compound_Path_2_" class="st1" d="M22.9,70.8l0.9-10.1c-2.2-3.9-3.5-8.5-3.5-13.3c0-5.8,1.8-11.2,4.9-15.5L22,25
			c-5.3,6-8.5,13.8-8.5,22.4C13.5,56.5,17.1,64.7,22.9,70.8z M71.9,70.8c5.8-6.1,9.3-14.3,9.3-23.4c0-8.6-3.2-16.5-8.5-22.4
			l-3.2,6.9c3,4.3,4.9,9.7,4.9,15.5c0,4.8-1.3,9.3-3.5,13.3L71.9,70.8z M24.5,22.4l5.1,10.9L26,73.7c2,1.6,4.1,3,6.4,4.1l2.8-32.4
			l5.5,11.8v-16L30.1,18.3C28.1,19.5,26.3,20.9,24.5,22.4z M54,57.2l5.5-11.8l2.8,32.4c2.3-1.2,4.4-2.5,6.4-4.1l-3.6-40.4l5.1-10.9
			c-1.8-1.6-3.6-2.9-5.6-4.1L54,41.2V57.2z M33.1,16.7l2.8,6.1c2.4-1.2,5.1-2,8-2.3v53.8c-2.7-0.3-5.2-1.1-7.6-2.2l-0.6,7.1
			c3.6,1.3,7.5,2,11.6,2s8.1-0.7,11.6-2l-0.6-7.1c-2.4,1.1-4.9,1.8-7.6,2.2V20.5c2.8,0.3,5.6,1.2,8,2.3l2.8-6.1
			c-4.3-2-9.1-3.2-14.3-3.2S37.4,14.7,33.1,16.7z">
   </path>
   <path id="Compound_Path_3_" class="st2" d="M88,47.4C88,69.8,69.8,88,47.4,88S6.8,69.8,6.8,47.4S25,6.8,47.4,6.8S88,25,88,47.4z
			 M20.3,47.4c0-5.8,1.8-11.2,4.9-15.5L22,25c-5.3,6-8.5,13.8-8.5,22.4c0,9.1,3.5,17.3,9.3,23.4l0.9-10.1
			C21.6,56.7,20.3,52.2,20.3,47.4z M35.3,45.4l5.5,11.8v-16L30.1,18.3c-2,1.2-3.8,2.6-5.6,4.1l5.1,10.9L26,73.7c2,1.6,4.1,3,6.4,4.1
			L35.3,45.4z M59,79.2l-0.6-7.1c-2.4,1.1-4.9,1.8-7.6,2.2V20.5c2.8,0.3,5.6,1.2,8,2.3l2.8-6.1c-4.3-2-9.1-3.2-14.3-3.2
			s-10,1.2-14.3,3.2l2.8,6.1c2.4-1.2,5.1-2,8-2.3v53.8c-2.7-0.3-5.2-1.1-7.6-2.2l-0.6,7.1c3.6,1.3,7.5,2,11.6,2S55.5,80.5,59,79.2z
			 M68.8,73.7l-3.6-40.4l5.1-10.9c-1.8-1.6-3.6-2.9-5.6-4.1L54,41.2v16l5.5-11.8l2.8,32.4C64.7,76.6,66.8,75.3,68.8,73.7z
			 M81.2,47.4c0-8.6-3.2-16.5-8.5-22.4l-3.2,6.9c3,4.3,4.9,9.7,4.9,15.5c0,4.8-1.3,9.3-3.5,13.3l0.9,10.1
			C77.7,64.7,81.2,56.5,81.2,47.4z">
   </path>
  </g>
 </g>
</svg>