<svg version="1.1" id="Layer_1" xmlns="http://www.w3.org/2000/svg" xmlns:xlink="http://www.w3.org/1999/xlink" x="0px" y="0px" viewBox="0 0 249.2 42.6" style="enable-background:new 0 0 249.2 42.6;" xml:space="preserve">
 <style type="text/css">
  .st0{fill:#FF7C00;}
 </style>
 <g>
  <g>
   <g id="P-Outlines" transform="matrix(0.1766200065612793,0,0,0.19211000204086304,4.436598777770996,5.3983001708984375)">
    <g id="Group-1" transform="matrix(1,0,0,1,69.54199981689453,70.13600158691406)">
     <g id="Path-1" transform="matrix(1,0,0,1,0,0)">
      <path class="st0" d="M-10.6-97.9c-24.5-1.2-66.3,1.1-84.1,2.5l1.4,53l17-1.1v165.2h65.7V80.5C85.5,75.9,108,24.7,108-11.5
						C107.9-62.7,66.2-94.3-10.6-97.9L-10.6-97.9z M-10.5,29v-72.2c41.9,2,51.9,19.9,51.9,34.5C41.4,11.9,27.5,28.2-10.5,29
						L-10.5,29z">
      </path>
     </g>
    </g>
   </g>
   <g id="O-Outlines" transform="matrix(0.1766200065612793,0,0,0.19211000204086304,24.036602020263672,5.614299774169922)">
    <g id="Group-1_1_" transform="matrix(1,0,0,1,69.54199981689453,70.13500213623047)">
     <g id="Path-1_1_" transform="matrix(1,0,0,1,0,0)">
      <path class="st0" d="M116.9-95.9C56.5-95.9,6.3-51.1,6.3,12.4s50.2,108.4,110.5,108.4c60.3,0,110.5-44.8,110.5-108.4
						C227.4-51.1,177.2-95.9,116.9-95.9L116.9-95.9z M117.4,62.7c-29.3,0-47.9-22.5-47.9-50.6s18.6-50.6,47.9-50.6
						c29.3,0,47.9,22.5,47.9,50.6C165.3,40.1,146.7,62.7,117.4,62.7L117.4,62.7z">
      </path>
     </g>
    </g>
   </g>
   <g id="P-Outlines-3" transform="matrix(0.1766200065612793,0,0,0.19211000204086304,42.774600982666016,5.3983001708984375)">
    <g id="Group-1_2_" transform="matrix(1,0,0,1,69.54199981689453,70.13600158691406)">
     <g id="Path-1_2_" transform="matrix(1,0,0,1,0,0)">
      <path class="st0" d="M205-97.9c-24.5-1.2-66.3,1.1-84.1,2.5l1.4,53l17-1.1v165.2h65.7V80.5c96-4.6,118.4-55.8,118.4-91.9
						C323.6-62.7,281.8-94.3,205-97.9L205-97.9z M205.1,29v-72.2c41.9,2,51.9,19.9,51.9,34.5C257,11.9,243.1,28.2,205.1,29L205.1,29
						z">
      </path>
     </g>
    </g>
   </g>
   <g id="E-Outlines" transform="matrix(0.1766200065612793,0,0,0.19211000204086304,61.72860336303711,5.614299774169922)">
    <g id="Group-1_3_" transform="matrix(1,0,0,1,69.54199981689453,70.13500213623047)">
     <g id="Path-1_3_" transform="matrix(1,0,0,1,0,0)">
      <path class="st0" d="M433.4,4.4c-0.4-45.1-24.2-102-101.8-102c-63.4,0-107.3,46-107.3,109.4s41.4,110.6,114.1,110.6
						c32.5,0,61-7.9,83.8-25.6l-25.6-46.9c-16.7,11.6-34.8,18.2-55.4,18.2c-27.4,0-43.5-12.5-49.7-34.2h139.8
						C432.4,27.6,433.5,15.3,433.4,4.4L433.4,4.4z M290.8-10.6c5.1-21.1,18.6-35.5,40.9-35.5c21.3,0,36.8,12.5,38.5,35.5H290.8
						L290.8-10.6z">
      </path>
     </g>
    </g>
   </g>
   <g id="Y-Outlines" transform="matrix(0.1766200065612793,0,0,0.19211000204086304,79.17459869384766,6.044300079345703)">
    <g id="Group-1_4_" transform="matrix(1,0,0,1,69.54199981689453,70.13500213623047)">
     <g id="Path-1_4_" transform="matrix(1,0,0,1,0,0)">
      <path class="st0" d="M466.6-90.1L425.4-1.3L386-90.1h-71.3l76.1,151.7v57.9h68.4V61.6l80-151.7H466.6L466.6-90.1z">
      </path>
     </g>
    </g>
   </g>
   <g id="E-Outlines-2" transform="matrix(0.1766200065612793,0,0,0.19211000204086304,96.40559387207031,5.614299774169922)">
    <g id="Group-1_5_" transform="matrix(1,0,0,1,69.54199981689453,70.13500213623047)">
     <g id="Path-1_5_" transform="matrix(1,0,0,1,0,0)">
      <path class="st0" d="M628.4,4.4c-0.4-45.1-24.2-102-101.8-102c-63.4,0-107.3,46-107.3,109.4s41.4,110.6,114.1,110.6
						c32.5,0,61-7.9,83.8-25.6l-25.6-46.9c-16.7,11.6-34.8,18.2-55.4,18.2c-27.4,0-43.5-12.5-49.7-34.2h139.8
						C627.4,27.6,628.5,15.3,628.4,4.4L628.4,4.4z M485.9-10.6c5.1-21.1,18.6-35.5,40.9-35.5c21.3,0,36.8,12.5,38.5,35.5H485.9
						L485.9-10.6z">
      </path>
     </g>
    </g>
   </g>
   <g id="S-Outlines" transform="matrix(0.1766200065612793,0,0,0.19211000204086304,113.42160034179688,5.614299774169922)">
    <g id="Group-1_6_" transform="matrix(1,0,0,1,69.54199981689453,70.13500213623047)">
     <g id="Path-1_6_" transform="matrix(1,0,0,1,0,0)">
      <path class="st0" d="M649.6-4.1c-11.7-4.7-25.8-9.9-35-14.1c-9-4.1-12.2-8.2-12.2-14.4c0-8.2,8.5-12.7,19.3-12.7
						c16.5,0,29.5,7.6,41.1,20l36.4-37.9c-15.6-21-42.4-34.3-76.6-34.3C576.2-97.5,540-75.1,540-31c0,34.8,16.8,51.6,49.4,65.7
						c9.2,4,21.6,7.6,30.9,11.5c8.1,3.4,13.2,7.1,13.2,13.7c0,6.2-5.4,11.2-21,11.2c-14.4,0-35.2-5.8-50.4-15.6l-22.1,45.4
						c21.1,15.2,46.5,21.5,72.6,21.5c40.4,0,83.8-17.5,83.8-64.6C696.3,22.4,673.6,5.5,649.6-4.1L649.6-4.1z">
      </path>
     </g>
    </g>
   </g>
  </g>
 </g>
</svg>